# xmcd
#
# Track frame offsets:
# 225
# 15065
# 28195
# 46638
# 60864
# 75545
# 90033
# 103143
# 120746
# 134040
# 149323
# 160457
# 177542
# 190256
#
# Disc length: 2959 seconds
#
#
# Revision: 0
# Processed by: cddbd v1.5.2PL0 Copyright (c) Steve Scherf et al.
# Submitted via: FreeRIP 2.951 
#
DISCID=ad0b8c0e
DTITLE=Jannez - Ere live så ere
DYEAR=1900
DGENRE=Dansband
TTITLE0=Jannez - Don't you know how much I love you
TTITLE1=Jannez - I can't do thinkin' about you
TTITLE2=Jannez - Soner or later
TTITLE3=Jannez - I said I love you
TTITLE4=Jannez - Die of a broken heart
TTITLE5=Jannez - I like what I see
TTITLE6=Jannez - Sweet little Lisa
TTITLE7=Jannez - Answers in the sky
TTITLE8=Jannez - Love writes your name in the sky
TTITLE9=Jannez - Do that again
TTITLE10=Jannez - Think of me when you're lonely
TTITLE11=Jannez - Lonely days
TTITLE12=Jannez - Overnight success
TTITLE13=Jannez - When she cries
EXTD=
EXTT0=
EXTT1=
EXTT2=
EXTT3=
EXTT4=
EXTT5=
EXTT6=
EXTT7=
EXTT8=
EXTT9=
EXTT10=
EXTT11=
EXTT12=
EXTT13=
PLAYORDER=
